<?xml version="1.0" encoding="UTF-8" standalone="no"?>
<svg
   xmlns:dc="http://purl.org/dc/elements/1.1/"
   xmlns:cc="http://creativecommons.org/ns#"
   xmlns:rdf="http://www.w3.org/1999/02/22-rdf-syntax-ns#"
   xmlns:svg="http://www.w3.org/2000/svg"
   xmlns="http://www.w3.org/2000/svg"
   xmlns:sodipodi="http://sodipodi.sourceforge.net/DTD/sodipodi-0.dtd"
   xmlns:inkscape="http://www.inkscape.org/namespaces/inkscape"
   version="1.1"
   id="lh-logo"
   xml:space="preserve"
   width="423.75998"
   height="461.5365"
   viewBox="0 0 423.75998 461.53649"
   sodipodi:docname="lh.svg"
   inkscape:version="1.0.1 (3bc2e813f5, 2020-09-07)">
  <metadata
   id="metadata821">
    <rdf:RDF>
      <cc:Work
   rdf:about="">
        <dc:format>image/svg+xml</dc:format>
        <dc:type
   rdf:resource="http://purl.org/dc/dcmitype/StillImage" />
        <dc:title />
      </cc:Work>
    </rdf:RDF>
  </metadata>
  <defs
   id="defs819">
    <clipPath
   clipPathUnits="userSpaceOnUse"
   id="clipPath831">
      <path
   d="M 0,841.89 H 595.28 V 0 H 0 Z"
   id="path829"
   inkscape:connector-curvature="0" />
    </clipPath>
  <filter
   style="color-interpolation-filters:sRGB;"
   inkscape:label="Drop Shadow"
   id="filter147"><feFlood
     flood-opacity="0.498039"
     flood-color="rgb(255,255,255)"
     result="flood"
     id="feFlood137" /><feComposite
     in="flood"
     in2="SourceGraphic"
     operator="in"
     result="composite1"
     id="feComposite139" /><feGaussianBlur
     in="composite1"
     stdDeviation="10"
     result="blur"
     id="feGaussianBlur141" /><feOffset
     dx="0"
     dy="0"
     result="offset"
     id="feOffset143" /><feComposite
     in="SourceGraphic"
     in2="offset"
     operator="over"
     result="composite2"
     id="feComposite145" /></filter></defs>
  <sodipodi:namedview
   pagecolor="#ffffff"
   bordercolor="#666666"
   borderopacity="1"
   objecttolerance="10"
   gridtolerance="10"
   guidetolerance="10"
   inkscape:pageopacity="0"
   inkscape:pageshadow="2"
   inkscape:window-width="1920"
   inkscape:window-height="1017"
   id="namedview817"
   showgrid="false"
   inkscape:zoom="0.79374976"
   inkscape:cx="237.17827"
   inkscape:cy="222.9129"
   inkscape:window-x="1912"
   inkscape:window-y="-8"
   inkscape:window-maximized="1"
   inkscape:current-layer="g823"
   inkscape:document-rotation="0" />
  <g
   id="g823"
   inkscape:groupmode="layer"
   inkscape:label="lhlast2"
   transform="matrix(1.3333333,0,0,-1.3333333,-159.67506,799.88358)">
    <g
   id="g825"
   transform="matrix(0.96997362,0,0,0.96997362,8.3673344,12.816352)"
   style="filter:url(#filter147)">
      <g
   id="g827"
   clip-path="url(#clipPath831)">
        <g
   id="g833"
   transform="translate(161.5234,531.9668)">
          <path
   d="m 0,0 c 0.091,15.468 11.407,24.507 22.775,28.571 24.338,7.998 48.634,14.95 72.929,22.077 5.198,1.661 10.395,3.31 15.601,4.971 4.853,1.963 9.706,2.32 14.551,0.353 24.869,-7.163 49.734,-14.293 74.645,-21.408 11.53,-3.718 23.031,-7.48 30.631,-17.834 3.183,-5.677 5.2,-12.886 5.105,-22.765 -0.165,-35.752 -0.341,-71.541 -0.475,-107.319 -16.381,-6.125 -21.932,-17.969 -11.148,-37.117 0.226,-6.896 0.443,-13.8 0.699,-20.7 -5.889,-3.67 -7.598,-14.119 -5.237,-21.412 1.825,-5.77 -1.49,-9.229 -8.699,-10.751 -64.584,-24.648 -133.105,-22.988 -198.09,3.318 0.83,6.992 0.878,13.505 0.921,19.97 1.399,3.495 -0.139,6.77 -6.463,11.668 0.388,5.86 0.779,11.759 1.173,17.608 11.057,20.373 6.077,32.696 -9.742,38.978 C -0.739,-74.375 -0.169,-38.329 0,0"
   style="fill:#ace1fa;fill-opacity:1;fill-rule:nonzero;stroke:none"
   id="path835"
   inkscape:connector-curvature="0" />
        </g>
        <g
   id="g837"
   transform="translate(154.8413,278.6787)">
          <path
   d="m 0,0 c -4.369,2.582 -8.083,5.328 -11.1,8.263 -0.913,5.066 0.224,11.752 0.654,19.012 0.395,3.758 -1.666,5.716 -4.284,6.988 -6.507,3.8 -12.401,7.478 -19.004,11.014 -1.57,0.825 -1.181,0.919 -1.224,3.061 -0.086,2.924 -0.086,5.892 -0.127,8.909 v 3.972 c 0.041,14.691 0.652,29.72 1.137,44.098 3.23,-2.271 7.638,-4.724 13.408,-5.28 3.106,-0.232 3.852,-0.101 6.248,0.556 -0.703,3.183 -1.568,6.6 -4.32,12.282 -5.634,11.766 -1.666,23.43 15.291,27.625 1.921,0.131 2.885,1.176 3.321,2.744 v -7.56 c -3.321,-0.125 -7.033,-1.567 -10.18,-4.579 -3.888,-3.673 -3.544,-9.407 -2.053,-15.001 1.479,-2.799 8.737,-3.623 9.653,1.363 0.392,2.179 1.096,4.066 1.18,6.202 0.436,-0.224 0.92,-0.347 1.4,-0.475 L 0,109.73 c -2.361,-1.1 -5.635,-1.698 -9.785,-1.752 0.83,-0.653 1.612,-1.266 2.399,-1.955 1.224,-2.889 0.485,-4.511 -0.176,-6.17 2.411,0.658 5.03,1.001 7.562,1.794 V 95.621 C -3.712,94.658 -8.047,94.701 -11.928,94.87 -8.427,92.908 -4.156,90.633 0,88.575 v -6.289 l -27.046,12.318 -2.104,-45.966 16.917,-9.175 0.914,21.544 c -0.266,3.979 1.62,7.208 5.641,9.786 L 0,73.407 V 64.851 L -2.884,62.883 0,61.529 V 56.55 c -1.273,0.792 -2.58,1.568 -3.804,2.403 C -3.89,43.53 -3.938,25.743 -4.022,10.27 -2.799,9.085 -1.443,7.914 0,6.774 Z m 0,109.73 v 13.464 c 1.315,-0.303 2.84,-0.395 4.636,-0.134 0.21,-3.101 0.654,-6.167 -0.177,-8.782 C 3.805,112.354 2.314,110.821 0,109.73 M 6.985,58.294 V 52.478 C 4.592,53.804 2.265,55.151 0,56.55 v 4.979 z m 0,18.362 V 69.621 L 0,64.851 v 8.556 z m 0,8.689 V 79.141 L 0,82.286 v 6.289 c 2.448,-1.176 4.805,-2.313 6.985,-3.23 m 0,20.36 V 98.844 C 6.682,98.98 6.38,98.934 6.12,98.889 4.55,97.277 2.411,96.27 0,95.621 v 6.026 c 2.448,0.743 4.846,1.876 6.985,4.058 m 0,-109.415 C 4.5,-2.53 2.179,-1.316 0,0 V 6.774 C 2.095,5.196 4.415,3.664 6.985,2.232 Z m -6.55,150.931 c 0.26,31.339 0.704,63.152 -0.09,94.135 -0.297,12.977 0.35,24.604 6.64,34 V 257.297 C 6.816,256.04 6.682,254.683 6.682,253.288 6.513,214.959 5.987,178.913 5.858,141.496 c 0.387,-0.168 0.741,-0.342 1.127,-0.473 v -7.171 c -0.998,0.568 -2.095,1.054 -3.315,1.403 -1.138,0.304 -2.355,0.472 -3.67,0.429 v 7.56 c 0.345,1.135 0.435,2.539 0.435,3.977 M 9.566,57.114 V 51.135 C 8.694,51.572 7.82,52.056 6.985,52.478 v 5.816 z m 0,20.714 V 71.362 L 6.985,69.621 v 7.035 z m 0,31.291 V 77.955 l -2.581,1.186 v 6.204 c 0.098,-0.041 0.182,-0.088 0.267,-0.132 1.14,3.401 0.83,7.162 0.745,10.887 0,1.871 -0.484,2.575 -1.012,2.744 v 6.861 c 0.92,0.927 1.802,2.061 2.581,3.414 m 0,30.676 v -7.908 c -0.746,0.745 -1.611,1.395 -2.581,1.965 v 7.171 c 0.887,-0.392 1.751,-0.835 2.581,-1.228 m 0,-144.738 C 8.694,-4.545 7.82,-4.151 6.985,-3.71 V 2.232 C 7.82,1.793 8.694,1.309 9.566,0.878 Z M 6.985,275.356 c 0.794,1.178 1.624,2.311 2.581,3.367 v -13.076 c -1.259,-2.49 -2.138,-5.242 -2.581,-8.35 z M 124.416,32.468 V 26.794 C 82.198,26.532 40.993,34.827 9.566,51.135 v 5.979 L 13.24,55.403 12.324,73.198 9.566,71.362 v 6.466 L 9.7,77.911 9.566,77.955 v 31.164 c 0.796,1.345 1.534,2.884 2.23,4.673 2.581,7.173 1.971,13.942 -2.23,18.095 v 7.908 C 22.375,133.068 25.738,121.186 15.601,102.519 15.207,96.669 14.815,90.771 14.427,84.91 20.751,80.012 22.289,76.737 20.933,73.242 20.891,66.777 20.799,60.264 19.969,53.272 54.146,39.422 89.323,32.429 124.416,32.468 m 0,-57.382 c -43.267,0.35 -87.102,7.427 -114.85,19.971 v 5.821 c 25.048,-12.76 69.708,-19.191 114.85,-18.753 z M 9.566,278.723 c 4.811,5.456 11.93,10.048 22.558,13.495 30.499,8.26 60.385,15.26 91.814,29.016 0.126,-0.046 0.307,-0.128 0.478,-0.169 v -10.534 c -2.145,-0.171 -4.284,-0.743 -6.429,-1.624 -5.206,-1.66 -10.403,-3.31 -15.601,-4.971 -24.295,-7.127 -48.591,-14.079 -72.885,-22.077 -7.908,-2.838 -15.82,-8.08 -19.935,-16.212 z m 228.946,-140.45 v -6.912 c -4.849,-4.068 -5.681,-11.181 -2.931,-18.697 0.877,-2.372 1.836,-4.288 2.931,-5.86 V 77.955 l -0.83,-0.347 0.83,-0.433 v -7.471 l -3.445,2.313 -0.971,-17.787 4.416,2.009 V 50.602 C 204.421,34.827 163.955,27.053 124.416,26.794 v 5.674 c 31.547,0.044 63.053,5.813 93.643,17.486 7.209,1.523 10.524,4.982 8.699,10.751 -2.313,7.293 -0.652,17.742 5.237,21.412 -0.208,6.901 -0.473,13.804 -0.699,20.7 -9.874,17.488 -6.064,28.935 7.216,35.456 m 0,-143.076 c -24.819,-11.01 -47.237,-17.094 -88.097,-19.458 -8.562,-0.47 -17.261,-0.692 -25.999,-0.653 v 7.039 c 43.217,0.471 86.821,7.219 114.096,20.855 z M 124.416,321.065 c 28.711,-9.884 59.254,-18.927 88.494,-25.306 9.912,-3.27 18.829,-7.993 25.602,-14.9 v -12.103 c -0.217,0.432 -0.483,0.868 -0.698,1.262 -7.6,10.355 -19.101,14.116 -30.631,17.835 -24.911,7.114 -49.776,14.244 -74.644,21.407 -2.706,1.1 -5.413,1.49 -8.123,1.271 z M 240.913,57.386 v -5.643 c -0.783,-0.393 -1.612,-0.779 -2.401,-1.141 v 5.637 z m 0,18.524 v -7.868 l -2.401,1.662 v 7.471 z m 0,28.097 v -7.255 c -0.698,0.435 -1.308,0.922 -1.83,1.434 -0.353,-0.647 0,-1.343 0.042,-3.222 0.086,-3.717 -0.169,-7.523 1.005,-10.926 0.261,0.139 0.523,0.22 0.783,0.35 V 79.05 l -2.401,-1.095 v 28.849 c 0.74,-1.099 1.574,-2.054 2.401,-2.797 m 0,35.347 v -6.374 c -0.873,-0.431 -1.702,-1.009 -2.401,-1.619 v 6.912 c 0.789,0.338 1.574,0.733 2.401,1.081 m 0,-143.064 c -0.783,-0.394 -1.612,-0.74 -2.401,-1.093 V 2.98 c 0.831,0.386 1.618,0.817 2.401,1.212 z m -2.401,284.569 c 0.831,-0.871 1.668,-1.748 2.401,-2.705 v -15.483 c -0.648,2.192 -1.485,4.21 -2.401,6.085 z m 8.826,-220.465 v -5.458 c -2.093,-1.091 -4.239,-2.191 -6.425,-3.193 v 5.643 z m 0,12.193 v -8.912 l -6.425,4.367 v 7.868 z m 0,14.812 v -5.553 l -6.425,-2.796 v 5.338 c 2.006,0.916 4.197,1.916 6.425,3.011 m 0,13.065 v -6.031 c -2.401,0.477 -4.626,1.224 -6.425,2.319 v 7.255 c 2.006,-1.883 4.197,-2.881 6.425,-3.543 m 0,22.16 v -14.077 c -2.273,1.095 -3.759,2.622 -4.419,4.544 -0.867,2.628 -0.34,5.992 -0.123,9.095 1.704,0.527 3.146,0.558 4.542,0.438 m 0,-123.448 c -0.222,-0.083 -0.433,-0.135 -0.652,-0.231 -1.961,-0.903 -3.846,-1.788 -5.773,-2.655 v 7.902 c 2.271,1.224 4.418,2.496 6.425,3.806 z m -6.425,278.978 c 2.582,-3.11 4.761,-6.604 6.425,-10.58 V 134.512 c -1.307,0.046 -2.528,-0.133 -3.668,-0.443 -1.008,-0.303 -1.927,-0.649 -2.757,-1.089 v 6.374 c 0.533,0.175 1.012,0.4 1.531,0.58 0.183,35.778 0.352,71.567 0.475,107.319 0.053,6.072 -0.684,11.102 -2.006,15.418 z m 6.425,-10.58 c 1.352,-3.233 2.409,-6.82 3.063,-10.708 0.259,-39.412 -0.92,-75.385 -0.703,-114.838 13.679,-5.462 27.974,-17.347 15.34,-33.57 -1.745,-4.682 -3.453,-8.125 2.708,-8.695 3.847,1.582 10.924,4.151 14.78,5.724 0,-17.651 -0.402,-35.653 0.209,-53.178 -0.086,-7.251 -2.173,-13.158 -7.735,-14.946 -5.412,-1.616 -12.802,-0.473 -15.724,-6.517 -0.308,-5.412 0.122,-11.19 0,-16.681 -0.928,-8.564 -5.338,-12.638 -11.938,-14.989 v 8.822 c 1.27,0.828 2.539,1.707 3.717,2.579 v 46.327 c -1.224,-0.665 -2.497,-1.317 -3.717,-1.968 v 5.458 l 2.887,1.312 -2.887,1.969 v 8.912 l 6.298,-3.279 5.022,-8.568 -0.349,-22.586 16.691,8.869 0.433,47.105 -28.095,-12.282 v 5.553 c 4.153,2.051 8.481,4.334 11.938,6.297 -3.457,-0.175 -7.917,-0.047 -11.938,0.737 v 6.031 c 2.577,-0.779 5.16,-1.127 7.607,-1.789 -0.656,1.658 -1.443,3.277 -0.224,6.166 0.836,0.687 1.581,1.306 2.404,1.963 -4.15,0.04 -7.427,0.651 -9.787,1.743 v 14.077 c 0.483,-0.046 0.917,-0.086 1.401,-0.132 0.086,-2.14 0.791,-4.018 1.224,-6.205 0.923,-4.989 8.174,-4.115 9.658,-1.358 1.435,5.594 1.838,11.319 -2.058,14.997 -3.14,3.017 -6.861,4.453 -10.225,4.586 z"
   style="fill:#fff200;fill-opacity:1;fill-rule:nonzero;stroke:none"
   id="path839"
   inkscape:connector-curvature="0" />
        </g>
        <g
   id="g841"
   transform="translate(152.9204,336.4111)">
          <path
   d="m 0,0 v -49.37 c -0.695,0.59 -1.441,1.26 -2.102,1.907 0.085,15.474 0.133,33.261 0.219,48.684 C -1.271,0.831 -0.611,0.386 0,0 M 0,5.806 V 4.719 L -0.963,5.15 Z m 0,19.625 -25.125,11.44 -2.104,-45.966 16.916,-9.175 0.915,21.544 c 0,5.248 3.061,7.825 5.641,9.787 L 0,14.813 Z m 0,12.056 v -5.671 c -3.543,1.781 -7.034,3.663 -10.007,5.322 C -6.78,36.969 -3.23,36.926 0,37.487 M 0,77.74 c -2.798,-0.521 -5.724,-1.924 -8.259,-4.367 -3.888,-3.674 -3.544,-9.407 -2.054,-15.002 1.48,-2.799 8.738,-3.622 9.654,1.363 0.173,1.05 0.439,2.004 0.659,2.971 z M 0,51.307 c -2.102,-0.663 -4.72,-1.007 -7.828,-1.062 0.794,-0.652 1.576,-1.266 2.363,-1.954 1.224,-2.89 0.485,-4.512 -0.176,-6.171 1.798,0.481 3.714,0.787 5.641,1.274 z M 0,31.816 v 5.671 c 3.145,0.531 6.022,1.623 8.041,3.669 0.696,0.183 1.876,0.131 1.876,-2.789 C 10.046,34.643 10.313,30.882 9.173,27.48 6.38,28.709 3.186,30.186 0,31.816 M 0,14.813 11.621,20.179 0,25.431 Z M 0,4.719 v 1.087 l 14.245,9.66 0.916,-17.795 z M 246.289,-4.338 C 170.952,-42.048 60.998,-38.856 0,0 v -49.37 c 38.328,-33.145 189.261,-35.979 246.289,-2.244 z m 0,12.325 V 1.263 l -10.272,-4.765 0.971,17.786 z m 0,14.825 v -6.43 l -6.686,3.494 z m 0,14.675 v -9.264 c -1.487,-0.699 -2.922,-1.352 -4.238,-1.917 -1.175,3.403 -0.919,7.209 -1.005,10.925 -0.043,1.879 -0.395,2.576 -0.043,3.222 1.268,-1.307 3.153,-2.265 5.286,-2.966 m 0,39.036 V 64.806 c -0.529,-0.046 -1,-0.179 -1.572,-0.353 -0.217,-3.102 -0.744,-6.467 0.123,-9.095 0.315,-0.877 0.79,-1.656 1.449,-2.403 v -9.04 c -3.371,1.661 -6.469,4.715 -8.788,11.017 -3.539,9.695 -1.125,18.736 8.09,21.405 0.217,0.048 0.444,0.14 0.698,0.186 M 0.521,65.937 C 2.09,65.243 4.059,64.98 6.557,65.327 6.767,62.227 7.252,59.16 6.38,56.546 5.542,54.143 3.406,52.309 0,51.307 v -7.913 c 5.115,1.183 10.313,3.404 13.717,12.666 3.539,9.747 1.097,18.801 -8.126,21.462 C 3.93,77.994 2.005,78.091 0,77.74 V 62.705 c 0.26,1.045 0.478,2.101 0.521,3.232 m 245.768,-1.131 v 11.717 c 3.978,0.872 9.046,-0.404 13.195,-4.33 3.896,-3.677 3.493,-9.402 2.058,-14.997 -1.484,-2.757 -8.735,-3.631 -9.658,1.359 -0.392,2.186 -1.138,4.064 -1.224,6.205 -1.44,0.132 -2.797,0.306 -4.371,0.046 m 0,-20.891 v 9.04 c 2.233,-2.445 6.47,-3.801 12.757,-3.884 -0.823,-0.656 -1.568,-1.275 -2.404,-1.963 -1.219,-2.888 -0.433,-4.507 0.224,-6.166 -3.361,0.919 -7.124,1.222 -10.577,2.973 m 0,-15.692 v 9.264 c 4.591,-1.523 10.529,-1.755 14.908,-1.523 -4.331,-2.449 -9.879,-5.38 -14.908,-7.741 m 0,-11.841 9.268,-4.807 5.022,-8.567 -0.349,-22.586 16.69,8.869 0.434,47.105 -31.065,-13.584 z m 0,-15.119 v 6.724 l 5.857,-4.013 z m 0,-52.877 v 47.276 c 2.233,1.142 4.457,2.28 6.687,3.51 v -46.327 c -2.055,-1.534 -4.327,-3.009 -6.687,-4.459"
   style="fill:#ed1c24;fill-opacity:1;fill-rule:nonzero;stroke:none"
   id="path843"
   inkscape:connector-curvature="0" />
        </g>
        <g
   id="g845"
   transform="translate(161.6934,318.5967)">
          <path
   d="m 0,0 3.594,-1.979 -4.219,-17.587 -3.629,1.978 z"
   style="fill:#2b423b;fill-opacity:1;fill-rule:nonzero;stroke:none"
   id="path847"
   inkscape:connector-curvature="0" />
        </g>
        <g
   id="g849"
   transform="translate(166.6675,299.623)">
          <path
   d="m 0,0 -1.238,-3.316 -8.248,4.678 1.241,3.349 z"
   style="fill:#2b423b;fill-opacity:1;fill-rule:nonzero;stroke:none"
   id="path851"
   inkscape:connector-curvature="0" />
        </g>
        <g
   id="g853"
   transform="translate(168.2627,304.0186)">
          <path
   d="m 0,0 c 0.572,2.938 1.522,5.003 2.924,6.162 0.958,0.821 2.023,1.15 3.271,0.992 V 2.604 C 5.776,2.569 5.444,2.358 5.117,2.031 4.493,1.443 4.043,0.209 3.675,-1.608 3.343,-3.421 3.304,-4.828 3.582,-5.823 3.916,-6.807 4.414,-7.467 5.204,-7.802 5.524,-7.964 5.862,-8.005 6.195,-8.005 v -4.5 c -0.546,0.077 -1.078,0.248 -1.656,0.497 -1.359,0.577 -2.392,1.356 -3.142,2.389 -0.78,1.032 -1.283,2.358 -1.569,4.015 C -0.458,-3.969 -0.418,-2.098 0,0 M 6.195,7.154 C 6.728,7.113 7.306,6.943 7.929,6.65 9.91,5.781 11.272,4.343 12.051,2.277 c 0.784,-2.068 0.871,-4.59 0.338,-7.476 -0.419,-2.097 -0.954,-3.713 -1.701,-4.88 -0.74,-1.148 -1.604,-1.896 -2.632,-2.265 -0.586,-0.2 -1.203,-0.24 -1.861,-0.161 v 4.5 c 0.365,0.041 0.739,0.244 1.065,0.579 0.583,0.572 1.075,1.899 1.448,3.874 0.332,1.694 0.332,3.06 0.045,4.047 C 8.423,1.443 7.884,2.114 7.1,2.441 6.807,2.604 6.48,2.649 6.195,2.604 Z"
   style="fill:#2b423b;fill-opacity:1;fill-rule:nonzero;stroke:none"
   id="path855"
   inkscape:connector-curvature="0" />
        </g>
        <g
   id="g857"
   transform="translate(192.9097,303.5664)">
          <path
   d="M 0,0 3.716,-1.406 1.948,-12.223 c -0.175,-1.074 -0.46,-2.029 -0.832,-2.937 -0.37,-0.867 -0.865,-1.564 -1.488,-2.097 -0.577,-0.549 -1.156,-0.83 -1.734,-0.95 -0.785,-0.125 -1.691,0 -2.684,0.363 -0.58,0.252 -1.2,0.545 -1.898,0.918 -0.658,0.409 -1.196,0.863 -1.606,1.404 -0.414,0.531 -0.747,1.229 -0.994,2.059 -0.289,0.829 -0.457,1.617 -0.457,2.398 -0.039,1.235 0,2.315 0.168,3.182 L -7.803,2.979 -4.087,1.573 -5.909,-9.538 c -0.16,-0.997 -0.12,-1.826 0.132,-2.515 0.286,-0.704 0.746,-1.162 1.402,-1.41 0.619,-0.248 1.202,-0.161 1.649,0.248 0.452,0.423 0.746,1.123 0.913,2.15 z"
   style="fill:#2b423b;fill-opacity:1;fill-rule:nonzero;stroke:none"
   id="path859"
   inkscape:connector-curvature="0" />
        </g>
        <g
   id="g861"
   transform="translate(205.937,299.9121)">
          <path
   d="m 0,0 3.791,-1.121 -0.838,-6.495 4.155,-1.196 0.831,6.479 3.786,-1.121 -2.377,-18.499 -3.824,1.121 1.004,7.491 -4.161,1.195 -0.95,-7.473 -3.787,1.119 z"
   style="fill:#2b423b;fill-opacity:1;fill-rule:nonzero;stroke:none"
   id="path863"
   inkscape:connector-curvature="0" />
        </g>
        <g
   id="g865"
   transform="translate(225.1729,279.1309)">
          <path
   d="M 0,0 -2.567,0.535 -3.444,-2.418 -7.35,-1.58 -0.948,16.132 0,15.908 V 8.804 L -1.369,4.408 0,4.107 Z M 1.792,-0.378 0,0 V 4.107 L 1.38,3.82 0.628,10.849 0,8.804 v 7.104 L 3.207,15.21 6.122,-4.447 2.123,-3.577 Z"
   style="fill:#2b423b;fill-opacity:1;fill-rule:nonzero;stroke:none"
   id="path867"
   inkscape:connector-curvature="0" />
        </g>
        <g
   id="g869"
   transform="translate(242.4263,291.9277)">
          <path
   d="M 0,0 3.818,-0.62 3.029,-11.809 c -0.081,-1.08 -0.241,-2.12 -0.541,-3.069 -0.321,-0.958 -0.743,-1.746 -1.283,-2.399 -0.537,-0.669 -1.08,-1.091 -1.622,-1.299 -0.789,-0.337 -1.711,-0.371 -2.74,-0.209 -0.583,0.083 -1.246,0.242 -1.949,0.495 -0.711,0.251 -1.289,0.58 -1.746,1.046 -0.466,0.449 -0.835,1.077 -1.208,1.822 -0.334,0.74 -0.584,1.547 -0.664,2.288 -0.169,1.252 -0.209,2.334 -0.127,3.245 l 0.791,11.175 3.819,-0.61 -0.785,-11.442 c -0.08,-1.043 0.042,-1.866 0.363,-2.487 0.34,-0.622 0.837,-1.001 1.506,-1.124 0.668,-0.078 1.203,0.123 1.617,0.615 0.415,0.509 0.67,1.291 0.75,2.33 z"
   style="fill:#2b423b;fill-opacity:1;fill-rule:nonzero;stroke:none"
   id="path871"
   inkscape:connector-curvature="0" />
        </g>
        <g
   id="g873"
   transform="translate(255.1655,291.0137)">
          <path
   d="m 0,0 3.825,-0.302 -0.206,-6.595 4.2,-0.33 0.248,6.603 3.866,-0.33 -0.662,-18.818 -3.873,0.322 0.259,7.603 -4.207,0.338 -0.242,-7.611 -3.87,0.292 z"
   style="fill:#2b423b;fill-opacity:1;fill-rule:nonzero;stroke:none"
   id="path875"
   inkscape:connector-curvature="0" />
        </g>
        <g
   id="g877"
   transform="translate(270.7573,290.0195)">
          <path
   d="M 0,0 3.859,-0.211 3.45,-19.077 -0.419,-18.873 Z"
   style="fill:#2b423b;fill-opacity:1;fill-rule:nonzero;stroke:none"
   id="path879"
   inkscape:connector-curvature="0" />
        </g>
        <g
   id="g881"
   transform="translate(284.3901,277.7949)">
          <path
   d="M 0,0 V 3.947 H 5.979 V -4.107 C 4.817,-5.272 3.818,-6.061 2.944,-6.519 2.081,-6.932 1.037,-7.147 -0.173,-7.147 c -1.491,0 -2.702,0.372 -3.614,1.159 -0.951,0.751 -1.669,1.881 -2.2,3.412 -0.501,1.494 -0.748,3.249 -0.748,5.198 0,2.036 0.293,3.813 0.836,5.363 0.583,1.493 1.371,2.66 2.442,3.454 0.876,0.617 2,0.913 3.457,0.913 1.369,0 2.407,-0.167 3.071,-0.545 0.708,-0.368 1.249,-1 1.704,-1.795 C 5.236,9.225 5.57,8.225 5.811,7.026 L 2.081,6.031 C 1.906,6.735 1.659,7.274 1.287,7.651 0.955,8.025 0.456,8.225 -0.093,8.225 -0.958,8.225 -1.618,7.774 -2.12,6.91 -2.617,5.992 -2.875,4.579 -2.875,2.659 c 0,-2.03 0.258,-3.495 0.755,-4.362 0.502,-0.873 1.201,-1.324 2.12,-1.324 0.456,0 0.867,0.129 1.244,0.289 0.377,0.212 0.837,0.535 1.337,0.956 V 0 Z"
   style="fill:#2b423b;fill-opacity:1;fill-rule:nonzero;stroke:none"
   id="path883"
   inkscape:connector-curvature="0" />
        </g>
        <g
   id="g885"
   transform="translate(293.4082,289.8887)">
          <path
   d="m 0,0 3.823,0.21 0.163,-6.608 4.198,0.21 -0.123,6.605 3.873,0.215 0.406,-18.835 -3.867,-0.201 -0.16,7.595 -4.2,-0.203 0.168,-7.635 -3.867,-0.185 z"
   style="fill:#2b423b;fill-opacity:1;fill-rule:nonzero;stroke:none"
   id="path887"
   inkscape:connector-curvature="0" />
        </g>
        <g
   id="g889"
   transform="translate(314.7422,278.8369)">
          <path
   d="m 0,0 3.659,0.829 c 0.127,-0.872 0.334,-1.536 0.587,-1.992 0.451,-0.715 1.04,-1 1.783,-0.909 0.545,0.08 0.955,0.319 1.211,0.745 0.285,0.449 0.406,0.914 0.367,1.406 C 7.607,0.586 7.4,0.988 7.104,1.332 6.822,1.706 6.154,1.957 5.078,2.153 3.371,2.538 2.12,3.124 1.338,3.987 0.583,4.819 0.127,5.984 0.047,7.477 0,8.436 0.127,9.356 0.459,10.271 c 0.297,0.912 0.832,1.655 1.539,2.236 0.703,0.584 1.748,0.999 3.034,1.174 1.577,0.204 2.835,-0.091 3.698,-0.884 0.871,-0.783 1.452,-2.121 1.749,-4.07 L 6.863,7.941 C 6.738,8.766 6.482,9.356 6.154,9.681 5.82,10.06 5.365,10.182 4.83,10.093 4.41,10.06 4.074,9.854 3.867,9.565 3.659,9.231 3.537,8.85 3.579,8.476 3.579,8.148 3.707,7.895 3.908,7.691 4.119,7.477 4.535,7.27 5.239,7.183 6.945,6.856 8.193,6.442 8.936,5.984 9.682,5.517 10.268,4.902 10.641,4.114 11.018,3.328 11.225,2.412 11.312,1.408 11.393,0.202 11.225,-0.964 10.846,-2.04 10.436,-3.076 9.893,-3.94 9.099,-4.568 8.354,-5.199 7.365,-5.611 6.154,-5.773 4.037,-6.021 2.539,-5.611 1.668,-4.492 0.795,-3.365 0.254,-1.878 0,0"
   style="fill:#2b423b;fill-opacity:1;fill-rule:nonzero;stroke:none"
   id="path891"
   inkscape:connector-curvature="0" />
        </g>
        <g
   id="g893"
   transform="translate(337.1523,283.8262)">
          <path
   d="M 0,0 3.479,-0.91 C 3.365,-2.376 3.114,-3.657 2.693,-4.695 2.314,-5.738 1.777,-6.58 1.068,-7.189 0.406,-7.781 -0.504,-8.193 -1.586,-8.393 c -1.372,-0.25 -2.49,-0.165 -3.371,0.245 -0.902,0.45 -1.734,1.328 -2.489,2.71 -0.708,1.404 -1.204,3.23 -1.37,5.561 -0.249,3.07 0.081,5.564 1.041,7.438 0.95,1.878 2.449,2.989 4.444,3.366 1.538,0.286 2.827,0.042 3.779,-0.75 C 1.404,9.388 2.193,8.022 2.773,6.153 L -0.504,4.402 c -0.168,0.54 -0.293,0.919 -0.461,1.169 -0.246,0.411 -0.533,0.701 -0.871,0.872 -0.332,0.16 -0.701,0.251 -1.086,0.16 C -3.793,6.443 -4.41,5.775 -4.784,4.655 -5.039,3.818 -5.118,2.54 -4.996,0.879 c 0.166,-2.08 0.502,-3.456 0.961,-4.162 0.496,-0.718 1.113,-0.961 1.867,-0.833 0.748,0.115 1.246,0.535 1.58,1.247 C -0.256,-2.171 -0.047,-1.253 0,0"
   style="fill:#2b423b;fill-opacity:1;fill-rule:nonzero;stroke:none"
   id="path895"
   inkscape:connector-curvature="0" />
        </g>
        <g
   id="g897"
   transform="translate(342.3809,296.2471)">
          <path
   d="m 0,0 3.823,0.795 0.581,-6.522 4.2,0.867 -0.629,6.557 3.826,0.8 1.752,-18.658 -3.826,-0.834 -0.707,7.56 -4.203,-0.865 0.71,-7.558 -3.826,-0.79 z"
   style="fill:#2b423b;fill-opacity:1;fill-rule:nonzero;stroke:none"
   id="path899"
   inkscape:connector-curvature="0" />
        </g>
        <g
   id="g901"
   transform="translate(358.1348,290.4756)">
          <path
   d="m 0,0 c -0.299,3.033 0,5.528 0.951,7.469 0.959,2.003 2.414,3.207 4.404,3.716 0.385,0.076 0.708,0.111 1.049,0.16 v -4.49 c -0.216,0 -0.382,0 -0.582,-0.042 C 5.031,6.61 4.483,6.067 4.108,5.109 3.694,4.199 3.607,2.79 3.82,0.868 c 0.207,-1.867 0.583,-3.15 1.125,-3.867 0.41,-0.539 0.91,-0.828 1.459,-0.828 V -8.228 C 5.484,-8.311 4.691,-8.192 3.984,-7.902 2.99,-7.448 2.154,-6.57 1.407,-5.243 0.703,-3.904 0.25,-2.16 0,0 M 6.404,11.345 C 7.975,11.469 9.299,10.966 10.383,9.802 11.635,8.394 12.463,6.189 12.751,3.204 13.008,1.038 12.918,-0.838 12.588,-2.33 12.256,-3.827 11.673,-5.069 10.846,-6.072 10.01,-7.063 8.892,-7.739 7.52,-8.066 7.145,-8.148 6.771,-8.228 6.404,-8.228 v 4.401 c 0.16,-0.04 0.367,0 0.532,0.048 0.832,0.195 1.418,0.747 1.783,1.655 0.379,0.926 0.467,2.411 0.217,4.485 C 8.766,4.115 8.39,5.357 7.853,6.025 7.436,6.566 6.936,6.813 6.404,6.855 Z"
   style="fill:#2b423b;fill-opacity:1;fill-rule:nonzero;stroke:none"
   id="path903"
   inkscape:connector-curvature="0" />
        </g>
        <g
   id="g905"
   transform="translate(373.3408,294.376)">
          <path
   d="m 0,0 c -0.414,3.037 -0.208,5.536 0.663,7.568 0.874,2.031 2.291,3.368 4.285,4.037 0.495,0.124 0.912,0.249 1.367,0.29 V 7.36 C 6.067,7.396 5.819,7.36 5.526,7.284 4.782,7.022 4.242,6.401 3.901,5.451 3.537,4.493 3.491,3.083 3.78,1.209 4.028,-0.658 4.449,-1.914 5.032,-2.563 5.404,-3.032 5.819,-3.275 6.315,-3.322 v -4.446 c -0.789,-0.08 -1.452,0 -2.073,0.25 C 3.245,-7.172 2.376,-6.354 1.584,-5.099 0.828,-3.855 0.294,-2.161 0,0 m 6.315,11.895 c 1.417,0.165 2.664,-0.29 3.661,-1.248 1.321,-1.333 2.245,-3.446 2.66,-6.413 0.289,-2.152 0.289,-4.019 0,-5.52 -0.293,-1.542 -0.829,-2.86 -1.623,-3.902 -0.786,-1.076 -1.868,-1.836 -3.241,-2.25 -0.5,-0.16 -0.998,-0.29 -1.457,-0.33 v 4.446 c 0.248,0 0.502,0.047 0.748,0.126 0.79,0.255 1.379,0.834 1.711,1.788 0.332,0.951 0.371,2.455 0.082,4.491 C 8.603,4.83 8.193,6.031 7.604,6.696 7.235,7.114 6.774,7.318 6.315,7.36 Z"
   style="fill:#2b423b;fill-opacity:1;fill-rule:nonzero;stroke:none"
   id="path907"
   inkscape:connector-curvature="0" />
        </g>
        <g
   id="g909"
   transform="translate(387.4268,308.7197)">
          <path
   d="m 0,0 3.741,1.372 2.248,-13.755 5.865,2.196 0.743,-4.53 -9.598,-3.613 z"
   style="fill:#2b423b;fill-opacity:1;fill-rule:nonzero;stroke:none"
   id="path911"
   inkscape:connector-curvature="0" />
        </g>
        <g
   id="g913"
   transform="translate(251.6274,428.2334)">
          <path
   d="m 0,0 v -46.342 c 0,0 14.106,6.044 27.203,0 V 1.009 C 27.203,1.009 13.601,12.09 0,0"
   style="fill:#22162a;fill-opacity:1;fill-rule:nonzero;stroke:none"
   id="path915"
   inkscape:connector-curvature="0" />
        </g>
        <g
   id="g917"
   transform="translate(251.6274,428.2334)">
          <path
   d="m 0,0 v -46.342 c 0,0 14.106,6.044 27.203,0 V 1.009 C 27.203,1.009 13.601,12.09 0,0 Z"
   style="fill:none;stroke:#fff200;stroke-width:2;stroke-linecap:round;stroke-linejoin:round;stroke-miterlimit:4;stroke-dasharray:none;stroke-opacity:1"
   id="path919"
   inkscape:connector-curvature="0" />
        </g>
        <g
   id="g921"
   transform="translate(238.3716,363.1592)">
          <path
   d="m 0,0 41.361,20.903 c 0,0 -11.758,9.865 -12.27,24.28 l -42.26,-21.36 C -13.169,23.823 -16.925,6.686 0,0"
   style="fill:#22162a;fill-opacity:1;fill-rule:nonzero;stroke:none"
   id="path923"
   inkscape:connector-curvature="0" />
        </g>
        <g
   id="g925"
   transform="translate(238.3716,363.1592)">
          <path
   d="m 0,0 41.361,20.903 c 0,0 -11.758,9.865 -12.27,24.28 l -42.26,-21.36 C -13.169,23.823 -16.925,6.686 0,0 Z"
   style="fill:none;stroke:#fff200;stroke-width:2;stroke-linecap:round;stroke-linejoin:round;stroke-miterlimit:4;stroke-dasharray:none;stroke-opacity:1"
   id="path927"
   inkscape:connector-curvature="0" />
        </g>
        <g
   id="g929"
   transform="translate(251.0947,339.3213)">
          <path
   d="m 0,0 41.361,20.904 c 0,0 -11.757,9.866 -12.269,24.281 L -13.169,23.824 C -13.169,23.824 -16.925,6.685 0,0"
   style="fill:#22162a;fill-opacity:1;fill-rule:nonzero;stroke:none"
   id="path931"
   inkscape:connector-curvature="0" />
        </g>
        <g
   id="g933"
   transform="translate(251.0947,339.3213)">
          <path
   d="m 0,0 41.361,20.904 c 0,0 -11.757,9.866 -12.269,24.281 L -13.169,23.824 C -13.169,23.824 -16.925,6.685 0,0 Z"
   style="fill:none;stroke:#fff200;stroke-width:2;stroke-linecap:round;stroke-linejoin:round;stroke-miterlimit:4;stroke-dasharray:none;stroke-opacity:1"
   id="path935"
   inkscape:connector-curvature="0" />
        </g>
        <g
   id="g937"
   transform="translate(318.8428,360.4834)">
          <path
   d="m 0,0 -39.27,24.608 c 0,0 -2.368,-15.161 -14.444,-23.049 l 40.125,-25.142 c 0,0 16.611,5.642 13.589,23.583"
   style="fill:#22162a;fill-opacity:1;fill-rule:nonzero;stroke:none"
   id="path939"
   inkscape:connector-curvature="0" />
        </g>
        <g
   id="g941"
   transform="translate(318.8428,360.4834)">
          <path
   d="m 0,0 -39.27,24.608 c 0,0 -2.368,-15.161 -14.444,-23.049 l 40.125,-25.142 c 0,0 16.611,5.642 13.589,23.583 z"
   style="fill:none;stroke:#fff200;stroke-width:2;stroke-linecap:round;stroke-linejoin:round;stroke-miterlimit:4;stroke-dasharray:none;stroke-opacity:1"
   id="path943"
   inkscape:connector-curvature="0" />
        </g>
        <g
   id="g945"
   transform="translate(333.8213,383.0479)">
          <path
   d="m 0,0 -39.269,24.609 c 0,0 -2.37,-15.163 -14.446,-23.05 l 40.126,-25.144 c 0,0 16.612,5.643 13.589,23.585"
   style="fill:#22162a;fill-opacity:1;fill-rule:nonzero;stroke:none"
   id="path947"
   inkscape:connector-curvature="0" />
        </g>
        <g
   id="g949"
   transform="translate(333.8213,383.0479)">
          <path
   d="m 0,0 -39.269,24.609 c 0,0 -2.37,-15.163 -14.446,-23.05 l 40.126,-25.144 c 0,0 16.612,5.643 13.589,23.585 z"
   style="fill:none;stroke:#fff200;stroke-width:2;stroke-linecap:round;stroke-linejoin:round;stroke-miterlimit:4;stroke-dasharray:none;stroke-opacity:1"
   id="path951"
   inkscape:connector-curvature="0" />
        </g>
        <g
   id="g953"
   transform="translate(278.4966,428.2334)">
          <path
   d="m 0,0 v -46.342 c 0,0 14.106,6.044 27.203,0 V 1.009 C 27.203,1.009 13.602,12.09 0,0"
   style="fill:#22162a;fill-opacity:1;fill-rule:nonzero;stroke:none"
   id="path955"
   inkscape:connector-curvature="0" />
        </g>
        <g
   id="g957"
   transform="translate(278.4966,428.2334)">
          <path
   d="m 0,0 v -46.342 c 0,0 14.106,6.044 27.203,0 V 1.009 C 27.203,1.009 13.602,12.09 0,0 Z"
   style="fill:none;stroke:#fff200;stroke-width:2;stroke-linecap:round;stroke-linejoin:round;stroke-miterlimit:4;stroke-dasharray:none;stroke-opacity:1"
   id="path959"
   inkscape:connector-curvature="0" />
        </g>
        <g
   id="g961"
   transform="translate(285.4565,442.9526)">
          <path
   d="m 0,0 c 0,-3.699 -2.997,-6.695 -6.696,-6.695 -3.696,0 -6.695,2.996 -6.695,6.695 0,3.698 2.999,6.696 6.695,6.696 C -2.997,6.696 0,3.698 0,0"
   style="fill:#335f5a;fill-opacity:1;fill-rule:nonzero;stroke:none"
   id="path963"
   inkscape:connector-curvature="0" />
        </g>
        <g
   id="g965"
   transform="translate(233.6777,355.9121)">
          <path
   d="m 0,0 c 0,-3.699 -2.998,-6.695 -6.695,-6.695 -3.698,0 -6.696,2.996 -6.696,6.695 0,3.698 2.998,6.696 6.696,6.696 C -2.998,6.696 0,3.698 0,0"
   style="fill:#335f5a;fill-opacity:1;fill-rule:nonzero;stroke:none"
   id="path967"
   inkscape:connector-curvature="0" />
        </g>
        <g
   id="g969"
   transform="translate(340.8047,355.9121)">
          <path
   d="m 0,0 c 0,-3.699 -2.998,-6.695 -6.695,-6.695 -3.699,0 -6.698,2.996 -6.698,6.695 0,3.698 2.999,6.696 6.698,6.696 C -2.998,6.696 0,3.698 0,0"
   style="fill:#335f5a;fill-opacity:1;fill-rule:nonzero;stroke:none"
   id="path971"
   inkscape:connector-curvature="0" />
        </g>
        <g
   id="g973"
   transform="translate(192.2158,528.7158)">
          <path
   d="m 0,0 c 1.518,1.253 -3.294,-1.971 -3.294,-1.971 0,0 -2.637,-3.006 -3.13,-3.603 -0.488,-0.597 -0.042,-3.308 0.741,-3.78 0.781,-0.479 1.95,-1.271 2.754,-1.928 0.798,-0.658 3.718,-0.564 5.354,-0.403 1.63,0.16 2.362,0.232 2.979,1.403 0.62,1.158 2.951,3.586 4.245,5.364 1.284,1.771 4.637,5.042 5.452,6.035 0.823,0.994 2.666,2.827 3.86,3.68 1.205,0.847 2.4,1.699 2.95,1.752 0.537,0.053 3.322,-0.224 3.322,-0.224 0,0 0.248,-2.548 -0.393,-3.522 -0.638,-0.98 -6.799,-11.108 -8.102,-12.707 -1.313,-1.6 -10.6,-17.173 -11.582,-18.369 -0.981,-1.199 -1.783,-2.383 -2.986,-3.229 -1.203,-0.847 -5.217,-2.897 -5.746,-4.966 -0.531,-2.063 -0.395,-7.186 -0.039,-8.981 0.363,-1.801 2.047,-4.027 2.986,-4.296 0.949,-0.274 2.891,0.464 3.603,0.726 0.704,0.247 1.486,1.605 3.119,3.595 1.648,2.008 4.971,5.445 6.334,6.495 1.364,1.052 3.391,2.9 7.323,3.834 3.945,0.936 9.708,2.051 10.597,2.318 0.887,0.277 3.943,0.934 5.354,-0.385 1.411,-1.33 1.153,-4.295 1.153,-4.295 0,0 -3.61,-6.217 -5.043,-8.376 -1.442,-2.155 -2.716,-4.116 -5.219,-4.73 -2.51,-0.603 -2.039,2.01 -2.13,2.913 -0.086,0.907 -1.361,4.635 -2.049,6.031 -0.69,1.403 -2.611,2.314 -3.519,2.224 -0.911,-0.088 -2.114,-0.936 -1.919,-2.944 0.197,-1.998 0.181,-5.482 0.181,-5.482 0,0 -1.17,-1.213 -2.003,-2.021 -0.842,-0.824 -2.597,-1.547 -3.84,-2.028 -1.237,-0.489 -1.905,-1.106 -2.032,-1.669 -0.13,-0.561 0.519,-1.607 1.523,-2.418 0.99,-0.817 1.625,-1.68 1.403,-3.158 -0.218,-1.493 -5.26,-8.034 -6.139,-8.486 -0.869,-0.456 -2.107,-0.946 -3.533,-1.265 -1.439,-0.327 -4.849,-4.873 -5.863,-5.713 -1.022,-0.83 -3.484,-1.797 -2.664,-4.657 0.833,-2.857 6.467,-2.306 8.371,-1.2 1.909,1.103 4.894,4.334 6.559,5.96 1.684,1.635 8.775,9.663 9.696,11.582 0.909,1.927 1.749,2.738 3.889,3.319 2.145,0.576 7.011,-0.412 6.523,-4.868 -0.483,-4.444 -3.481,-7.481 -4.702,-8.153 -1.219,-0.667 -2.883,-0.474 -3.924,-1.123 -1.038,-0.649 -1.778,-2.375 -1.227,-4.327 0.565,-1.97 4.257,-6.009 7.542,-5.867 3.287,0.139 6.584,3.947 7.738,7.175 1.149,3.23 1.879,10.812 2.512,11.797 0.636,0.981 1.274,1.964 0.689,4.107 -0.567,2.14 -2.995,4.47 -3.504,5.877 -0.505,1.433 -1.374,2.804 1.827,5.686 3.199,2.883 6.631,7.067 8.625,11.113 1.988,4.049 4.016,2.047 6.383,5.935 2.367,3.907 3.097,5.809 2.156,7.915 -0.938,2.106 -5.328,3.885 -8.235,3.6 -2.903,-0.285 -4.772,0.075 -6.77,-0.121 -1.998,-0.196 -3.798,-2.388 -5.941,-2.962 -2.141,-0.581 -10.7,-3.064 -13.986,-3.199 -3.282,-0.145 -4.341,1.218 -4.574,1.75 -0.228,0.526 -0.99,0.813 1.161,3.047 2.175,2.224 5.963,8.463 6.55,9.99 0.581,1.523 2.527,4.093 5.25,6.196 2.73,2.101 5.477,4.028 7.28,6.21 1.791,2.196 4.256,3.359 5.205,4.92 0.944,1.548 1.188,2.863 1.113,5.42 -0.063,2.564 -0.3,3.094 -2.008,5.495 -1.694,2.393 -2.728,3.572 -4.195,5.452 -1.47,1.864 -2.547,1.578 -3.719,0.549 -1.184,-1.03 -1.879,-3.307 -2.007,-3.866 -0.129,-0.559 -2.89,-2.298 -4.257,-3.35 -1.363,-1.051 -4.465,-3.003 -5.218,-2.893 -0.737,0.113 -2.105,-0.939 -2.105,-0.939 0,0 -0.602,-1.345 -1.716,-1.267 -1.102,0.073 -3.498,2.038 -4.237,3.981 C 10.01,15.648 8.939,17.194 8.289,18.229 7.644,19.266 6.357,21.164 4.212,20.578 2.069,20.006 1.528,19.952 1.213,19.374 0.904,18.798 0.737,14.925 0.682,13.635 0.621,12.353 1.82,2.018 1.82,2.018 c 0,0 0.268,-0.89 -0.434,-1.146 z"
   style="fill:#ed1c24;fill-opacity:1;fill-rule:nonzero;stroke:none"
   id="path975"
   inkscape:connector-curvature="0" />
        </g>
        <g
   id="g977"
   transform="translate(318.1953,516.4307)">
          <path
   d="m 0,0 c -2.299,-0.241 -3.833,-1.372 -5.707,-1.447 -1.877,-0.062 -4.809,-0.463 -5.901,-1.215 -1.093,-0.752 -2.888,-2.486 -2.788,-3.949 0.101,-1.454 0.962,-3.803 2.343,-4.742 1.389,-0.933 4.707,-0.973 5.327,-1.012 0.614,-0.05 1.024,-0.284 2.324,0.441 1.294,0.745 4.639,1.12 4.639,1.12 0,0 -1.219,-5.315 -1.307,-6.554 -0.096,-1.236 -0.964,-4.698 -1.67,-5.682 -0.696,-0.985 -2.951,-3.317 -4.477,-4.442 -1.537,-1.136 -3.918,-2.412 -7.213,-4.874 -3.294,-2.449 -6.85,-5.716 -7.611,-7.521 -0.753,-1.813 -1.117,-3.862 -0.982,-4.715 0.151,-0.828 0.86,-2.549 2.648,-3.509 1.809,-0.965 4.73,-0.772 5.77,-0.635 1.058,0.131 1.96,1.307 3.698,2.214 1.723,0.917 3.493,-0.467 3.493,-0.467 0,0 -0.482,-3.697 -0.383,-5.148 0.102,-1.476 1.117,-4.46 2.102,-5.354 0.966,-0.899 4.888,-1.193 4.888,-1.193 0,0 5.315,1.692 6.498,3.671 1.184,1.997 1.551,4.042 1.526,6.531 -0.026,2.488 0.259,6.416 0.228,8.905 -0.017,2.499 0.436,5.783 0.501,6.617 0.056,0.821 1.312,6.539 1.405,7.778 0.087,1.238 0.736,4.309 1.245,5.521 0.493,1.2 0.297,4.128 0.297,4.128 l -1.457,-0.105 c 0,0 -0.675,2.115 0.273,3.72 0.947,1.59 1.166,1.777 4.418,3.615 3.242,1.836 5.32,4.591 7.096,6.116 1.777,1.524 2.655,2.297 3.05,4.761 0.399,2.452 -1.048,2.561 -1.215,3.2 C 22.895,6.399 20.563,5.756 19.938,5.592 19.297,5.431 16.505,4.181 15.859,3.816 15.203,3.448 12.224,2.414 12.224,2.414 c 0,0 0.015,5.817 0.372,7.87 0.353,2.045 1.45,2.803 1.953,4.013 0.517,1.2 1.019,2.411 0.517,4.106 -0.503,1.693 -1.293,2.173 -1.837,3.249 -0.551,1.078 -1.523,1.779 -1.523,1.779 0,0 -2.358,-0.87 -3.017,-1.435 -0.668,-0.578 -4.07,-4.484 -4.07,-4.484 0,0 -1.417,-5.076 -1.601,-7.553 C 2.84,7.478 2.658,2.296 2.658,2.296 L 2.133,0.678 Z"
   style="fill:#ed1c24;fill-opacity:1;fill-rule:nonzero;stroke:none"
   id="path979"
   inkscape:connector-curvature="0" />
        </g>
        <g
   id="g981"
   transform="translate(361.1641,541.7012)">
          <path
   d="m 0,0 c -2.496,-2.935 -2.457,-5.219 -2.787,-6.857 -0.326,-1.641 0.564,-3.567 0.564,-3.567 0,0 2.25,-0.585 3.517,-0.26 1.269,0.325 5.243,3.559 6.563,4.497 1.309,0.94 2.259,2.532 2.526,3.338 C 10.658,-2.042 9.75,-0.107 9.844,1.138 9.934,2.382 9.553,2.827 8.126,3.129 6.705,3.445 4.201,3.421 2.727,3.119 1.246,2.808 1.393,1.971 1.144,1.362 0.888,0.759 0,0 0,0"
   style="fill:#ed1c24;fill-opacity:1;fill-rule:nonzero;stroke:none"
   id="path983"
   inkscape:connector-curvature="0" />
        </g>
        <g
   id="g985"
   transform="translate(350.708,520.8799)">
          <path
   d="m 0,0 c 1.706,0.707 5.536,1.881 7.259,2.789 1.726,0.906 3.481,2.232 5.58,2.491 2.096,0.263 4.174,0.316 5.455,0.837 1.285,0.528 2.589,1.275 4.078,1.777 1.502,0.518 2.553,0.85 4.4,0.502 1.841,-0.333 2.864,-0.62 3.223,-1.262 0.367,-0.658 -0.133,-1.866 0.469,-2.118 0.609,-0.254 2.215,-0.991 1.93,-2.015 -0.283,-1.008 -2.467,-2.511 -2.928,-3.099 -0.457,-0.586 -3.172,-3.504 -3.623,-4.096 -0.463,-0.581 -4.484,-4.443 -5.145,-5.013 -0.666,-0.582 -3.293,-2.243 -3.628,-4.091 -0.342,-1.84 -0.306,-4.129 2.161,-4.521 2.456,-0.388 3.909,-0.495 5.967,-0.648 2.065,-0.154 2.291,0.031 4.16,0.1 1.873,0.073 3.371,-2.115 3.371,-2.115 0,0 1.001,-3.387 0.748,-3.996 -0.248,-0.599 -0.83,-2.839 -1.735,-3.818 -0.911,-0.975 -3.605,-6.579 -4.727,-7.746 -1.123,-1.156 -3.849,-4.287 -4.957,-5.241 -1.102,-0.952 -3.791,-3.666 -3.791,-3.666 0,0 6.018,-8.325 8.349,-10.574 2.326,-2.253 4.682,-6.771 5.607,-8.301 0.927,-1.53 -0.12,-4.553 -0.41,-5.579 -0.282,-1.015 -3.603,-3.881 -6.96,-4.256 -3.342,-0.379 -4.426,1.783 -6.759,4.031 -2.314,2.237 -4.442,7.177 -5.591,8.505 -1.152,1.332 -2.516,2.476 -3.328,2.739 -0.813,0.268 -3.946,0.082 -4.592,-0.286 -0.658,-0.364 -1.213,-2.399 -1.846,-2.563 -0.636,-0.152 -3.93,0.292 -3.93,0.292 0,0 -0.398,0.241 -2.326,4.945 -1.943,4.71 -3.064,9.155 -2.53,10.772 0.54,1.627 2.464,2.527 3.509,2.648 1.062,0.134 4.525,-0.747 5.779,-0.633 1.257,0.121 4.536,-0.338 5.387,0.016 0.863,0.359 2.092,0.055 3.466,1.816 1.38,1.774 5.058,6.694 5.624,8.733 0.559,2.024 0.265,3.496 -0.753,3.789 -1.031,0.277 -2.603,1.225 -3.073,0.636 -0.46,-0.584 -1.973,-1.516 -1.973,-1.516 0,0 -3.708,0.479 -5.781,0.428 -2.088,-0.044 -4.402,-0.515 -5.448,-0.637 -1.054,-0.127 -4.501,0.962 -4.501,0.962 l 0.149,4.76 c 0,0 1.04,0.133 1.953,1.096 0.898,0.971 3.431,4.319 3.431,4.319 l 3.447,4.524 c 0,0 2.056,2.537 2.535,3.342 0.469,0.792 1.166,1.774 2.018,2.125 0.865,0.349 1.777,1.537 1.777,1.537 l -0.327,3.966 -2.678,0.199 -3.45,-1.613 c 0,0 -1.394,-1.979 -2.476,-2.512 -1.073,-0.552 -2.512,-0.451 -3.326,-0.176 -0.812,0.264 -3.084,0.444 -3.084,0.444 0,0 -0.475,1.899 -0.385,3.136 0.095,1.237 1.63,2.576 1.63,2.576 z"
   style="fill:#ed1c24;fill-opacity:1;fill-rule:nonzero;stroke:none"
   id="path987"
   inkscape:connector-curvature="0" />
        </g>
      </g>
    </g>
  </g>
</svg>
