<svg height="512" viewBox="0 0 58 58" width="512" xmlns="http://www.w3.org/2000/svg"><g id="Page-1" fill="none" fill-rule="evenodd"><g id="011---Online-Education" fill-rule="nonzero"><path id="Shape" d="m58 8v46c0 2.209139-1.790861 4-4 4h-50c-2.209139 0-4-1.790861-4-4v-46l29-4z" fill="#3180bc"/><path id="Shape" d="m43 49h1c.5522847 0 1 .4477153 1 1v2c0 .5522847-.4477153 1-1 1h-25.71c-1.9285358.0181605-3.7842196-.7358019-5.1535844-2.0938963-1.3693648-1.3580943-2.1386375-3.2074837-2.1364156-5.1361037.1272182-3.774516 3.2233409-6.7689089 7-6.77h26c.5522847 0 1 .4477153 1 1v2c0 .5522847-.4477153 1-1 1h-1z" fill="#e04c34"/><path id="Shape" d="m43 42.999997v6.000003h-24.84c-1.6349375.0280284-3.0139707-1.2113558-3.16-2.84-.0439562-.822991.2526007-1.6278202.8200443-2.2255275.5674437-.5977073 1.3557925-.9356455 2.1799557-.9344725z" fill="#f8e8ab"/><path id="Shape" d="m38.96 26 4.14-1.61 2.9-1.12 3.36-1.31c.3933166-.1497413.6507865-.5297139.6440716-.9505171-.006715-.4208032-.2761775-.7923673-.6740716-.9294829l-20-7.02c-.212719-.0800456-.447281-.0800456-.66 0l-20 7.02c-.39789414.1371156-.66735661.5086797-.67407155.9294829-.00671495.4208032.25075491.8007758.64407155.9505171l10.4 4.04z" fill="#393f4b"/><ellipse id="Oval" cx="29" cy="32" fill="#393f4b" rx="10" ry="3"/><path id="Shape" d="m39 24v8c0-1.66-4.48-3-10-3s-10 1.34-10 3v-8c0-1.66 4.48-3 10-3s10 1.34 10 3z" fill="#464f5e"/><path id="Shape" d="m45 24.87c-.5522847 0-1-.4477153-1-1v-5.3c0-.5522847.4477153-1 1-1s1 .4477153 1 1v5.3c0 .5522847-.4477153 1-1 1z" fill="#edc100"/><path id="Shape" d="m43 25v2c0 .5522847.4477153 1 1 1h2c.5522847 0 1-.4477153 1-1v-2c0-1.1045695-.8954305-2-2-2s-2 .8954305-2 2z" fill="#f1d24b"/><path id="Shape" d="m58 4v4h-58v-4c0-2.209139 1.790861-4 4-4h50c2.209139 0 4 1.790861 4 4z" fill="#2d3e51"/><circle id="Oval" cx="5" cy="4" fill="#e04c34" r="1"/><circle id="Oval" cx="9" cy="4" fill="#f1d24b" r="1"/><circle id="Oval" cx="13" cy="4" fill="#5bb86b" r="1"/><g fill="#ebeff0"><path id="Shape" d="m52 5h-1c-.5522847 0-1-.44771525-1-1s.4477153-1 1-1h1c.5522847 0 1 .44771525 1 1s-.4477153 1-1 1z"/><path id="Shape" d="m47 5h-6c-.5522847 0-1-.44771525-1-1s.4477153-1 1-1h6c.5522847 0 1 .44771525 1 1s-.4477153 1-1 1z"/></g></g></g></svg>