<svg height="512" viewBox="0 0 58 58" width="512" xmlns="http://www.w3.org/2000/svg"><g id="Page-1" fill="none" fill-rule="evenodd"><g id="032---School-Bell" fill-rule="nonzero"><path id="Shape" d="m50 13v40c0 2.7614237-2.2385763 5-5 5h-40c-1.32608245 0-2.59785201-.5267842-3.53553391-1.4644661-.93768189-.9376819-1.46446609-2.2094515-1.46446609-3.5355339v-40c0-2.7614237 2.23857625-5 5-5h3.51c-5.69650389 7.2240888-6.02766944 17.3149362-.81707919 24.8969785 5.21059019 7.5820423 14.74964809 10.8897978 23.53555749 8.1611696 8.7859095-2.7286282 14.7728677-10.8582777 14.7715217-20.0581481.0109283-4.7188123-1.5790175-9.3018045-4.51-13h3.51c2.7614237 0 5 2.2385763 5 5z" fill="#ba3a23"/><path id="Shape" d="m37.1 38.16c1.7190278.4839413 2.9048684 2.0541579 2.9 3.84v6c0 2.209139-1.790861 4-4 4h-22c-2.209139 0-4-1.790861-4-4v-6c-.00486843-1.7858421 1.1809722-3.3560587 2.9-3.84z" fill="#7d2f32"/><path id="Shape" d="m46 21c.0015002 10.2517778-7.3993888 19.006292-17.5084769 20.7107833-10.109088 1.7044914-19.97139092-4.1392795-23.33150817-13.8247616-3.36011725-9.685482.76414593-20.38151543 9.75687737-25.30388608 8.9927314-4.92237066 20.2252688-2.6322221 26.5731077 5.41786438 2.9206516 3.7038587 4.5093098 8.2831393 4.51 13z" fill="#e04c34"/><path id="Shape" d="m13.391 11c-.3994843-.0002838-.7604713-.2382977-.9181246-.6053579-.1576532-.3670603-.0817208-.79273212.1931246-1.0826421 3.1971989-3.40389673 7.6640591-5.3276815 12.334-5.312.5522847 0 1 .44771525 1 1s-.4477153 1-1 1c-4.1206579-.01341049-8.0619752 1.68436546-10.883 4.688-.1889046.1992589-.4514293.3120794-.726.312z" fill="#f57b73"/><circle id="Oval" cx="25" cy="21" fill="#fff" r="3"/><circle id="Oval" cx="16" cy="46" fill="#95a4a4" r="2"/><circle id="Oval" cx="34" cy="46" fill="#95a4a4" r="2"/><circle id="Oval" cx="11" cy="13" fill="#f57b73" r="1"/><path id="Shape" d="m46 46h-6v-2h6c3.8641657-.0044086 6.9955914-3.1358343 7-7v-8h2v8c-.006061 4.9680501-4.0319499 8.993939-9 9z" fill="#bcc2c6"/><circle id="Oval" cx="54" cy="25" fill="#f1d24b" r="4"/></g></g></svg>