<svg height="512" viewBox="0 0 58 58" width="512" xmlns="http://www.w3.org/2000/svg"><g id="Page-1" fill="none" fill-rule="evenodd"><g id="025---Search-Books" fill-rule="nonzero"><path id="Shape" d="m54.948 30.922c-.2525059 3.3230372-2.9485314 5.9331747-6.278 6.078h-46.67v-14h46.884c3.638 0 6.543 3.652 6.064 7.922z" fill="#f8e8ab"/><path id="Shape" d="m57.97 30.72c-.475624 5.3041637-4.9549859 9.34779-10.28 9.28h-46.69c-.55228475 0-1-.4477153-1-1v-2c0-.5522847.44771525-1 1-1h46.79c3.0651898.0422615 5.6930137-2.1802973 6.16-5.21.2256673-1.7139767-.2981691-3.4420757-1.4375201-4.7422762-1.1393509-1.3002006-2.7837115-2.0463969-4.5124799-2.0477238h-47c-.55228475 0-1-.4477153-1-1v-2c0-.5522847.44771525-1 1-1h47c2.7765447.0011235 5.4276312 1.156579 7.3185341 3.1897262 1.8909028 2.0331473 2.8513774 4.7609351 2.6514659 7.5302738z" fill="#e04c34"/><path id="Shape" d="m31 46v10c-.0032948 1.1032019-.8967981 1.9967052-2 2-1.1011688-.0081672-1.9918328-.8988312-2-2v-10z" fill="#2b5781"/><path id="Shape" d="m56 3v14h-47.55c-3.36359389-.1155642-6.11110721-2.7248433-6.4-6.078-.485-4.27 2.474-7.922 6.182-7.922z" fill="#f8e8ab"/><g fill="#e2be50"><path id="Shape" d="m15 13h-3c-.5522847 0-1-.4477153-1-1s.4477153-1 1-1h3c.5522847 0 1 .4477153 1 1s-.4477153 1-1 1z"/><path id="Shape" d="m47 13h-28c-.5522847 0-1-.4477153-1-1s.4477153-1 1-1h28c.5522847 0 1 .4477153 1 1s-.4477153 1-1 1z"/><path id="Shape" d="m52 13h-1c-.5522847 0-1-.4477153-1-1s.4477153-1 1-1h1c.5522847 0 1 .4477153 1 1s-.4477153 1-1 1z"/><path id="Shape" d="m52 9h-3c-.5522847 0-1-.44771525-1-1s.4477153-1 1-1h3c.5522847 0 1 .44771525 1 1s-.4477153 1-1 1z"/><path id="Shape" d="m45 9h-18c-.5522847 0-1-.44771525-1-1s.4477153-1 1-1h18c.5522847 0 1 .44771525 1 1s-.4477153 1-1 1z"/><path id="Shape" d="m23 9h-11c-.5522847 0-1-.44771525-1-1s.4477153-1 1-1h11c.5522847 0 1 .44771525 1 1s-.4477153 1-1 1z"/></g><path id="Shape" d="m4.05 10.79c.46698634 3.0297027 3.09481018 5.2522615 6.16 5.21h46.79c.5522847 0 1 .4477153 1 1v2c0 .5522847-.4477153 1-1 1h-46.69c-5.32501409.06779-9.80437605-3.9758363-10.28-9.28-.19991146-2.76933871.76056309-5.49712646 2.65146594-7.53027375 1.89090285-2.0331473 4.5419894-3.18860279 7.31853406-3.18972625h47c.5522847 0 1 .44771525 1 1v2c0 .55228475-.4477153 1-1 1h-47c-1.72876842.00132687-3.37312897.74752325-4.51247994 2.04772376-1.13935097 1.30020052-1.66318738 3.0282995-1.43752006 4.74227624z" fill="#7b669a"/><path id="Shape" d="m46 33h-3.14c-.5522847 0-1-.4477153-1-1s.4477153-1 1-1h3.14c.5522847 0 1 .4477153 1 1s-.4477153 1-1 1z" fill="#e2be50"/><path id="Shape" d="m15.14 33h-4.14c-.5522847 0-1-.4477153-1-1s.4477153-1 1-1h4.14c.5522847 0 1 .4477153 1 1s-.4477153 1-1 1z" fill="#e2be50"/><path id="Shape" d="m7 33h-1c-.55228475 0-1-.4477153-1-1s.44771525-1 1-1h1c.55228475 0 1 .4477153 1 1s-.44771525 1-1 1z" fill="#e2be50"/><path id="Shape" d="m9 29h-3c-.55228475 0-1-.4477153-1-1s.44771525-1 1-1h3c.55228475 0 1 .4477153 1 1s-.44771525 1-1 1z" fill="#e2be50"/><path id="Shape" d="m16.35 29h-3.35c-.5522847 0-1-.4477153-1-1s.4477153-1 1-1h3.35c.5522847 0 1 .4477153 1 1s-.4477153 1-1 1z" fill="#e2be50"/><path id="Shape" d="m46 29h-4.35c-.5522847 0-1-.4477153-1-1s.4477153-1 1-1h4.35c.5522847 0 1 .4477153 1 1s-.4477153 1-1 1z" fill="#e2be50"/><circle id="Oval" cx="29" cy="34" fill="#4883c5" r="14"/><path id="Shape" d="m34.18 25.45c-4.68 1.59-11.08 4.76-14.91 10.84-.1819397-.7496663-.2725971-1.5185761-.27-2.29.0088096-5.5191943 4.4808057-9.9911904 10-10 1.8272928-.0032278 3.6199365.4985741 5.18 1.45z" fill="#a1c8d3"/><path id="Shape" d="m39 34c.0027068 4.0126283-2.3950072 7.6377163-6.0886992 9.2054639-3.6936919 1.5677477-7.9669063.7740632-10.8513008-2.0154639-1.3846697-1.3288592-2.3538764-3.0310502-2.79-4.9 3.83-6.08 10.23-9.25 14.91-10.84.8579779.5219261 1.6331954 1.1690642 2.3 1.92 1.6270551 1.8247146 2.5242667 4.1852355 2.52 6.63z" fill="#86b4cc"/><path id="Shape" d="m24 36c-.4043959-.0000863-.7689341-.2437275-.923678-.6173454-.1547439-.373618-.0692299-.8036603.216678-1.0896546l6-6c.3923789-.3789722 1.0160848-.3735524 1.4018186.0121814s.3911536 1.0094397.0121814 1.4018186l-6 6c-.1874927.1875494-.4418052.2929434-.707.293z" fill="#fff"/><path id="Shape" d="m28 40c-.4043959-.0000863-.7689341-.2437275-.923678-.6173454-.1547439-.373618-.0692299-.8036603.216678-1.0896546l6-6c.3923789-.3789722 1.0160848-.3735524 1.4018186.0121814s.3911536 1.0094397.0121814 1.4018186l-6 6c-.1874927.1875494-.4418052.2929434-.707.293z" fill="#fff"/></g></g></svg>