<svg height="512" viewBox="0 0 58 58" width="512" xmlns="http://www.w3.org/2000/svg"><g id="Page-1" fill="none" fill-rule="evenodd"><g id="023---Female-Teacher" fill-rule="nonzero"><path id="Shape" d="m58 32v24c-.0032948 1.1032019-.8967981 1.9967052-2 2h-18v-28h18c1.1032019.0032948 1.9967052.8967981 2 2z" fill="#3180bc"/><path id="Shape" d="m40 30v28h-3c-1.1032019-.0032948-1.9967052-.8967981-2-2v-24c.0032948-1.1032019.8967981-1.9967052 2-2z" fill="#4397d5"/><rect id="Rectangle-path" fill="#ebeff0" height="5" rx="1" width="9" x="44" y="35"/><path id="Shape" d="m53 50h-9c-.5522847 0-1-.4477153-1-1s.4477153-1 1-1h9c.5522847 0 1 .4477153 1 1s-.4477153 1-1 1z" fill="#2b5781"/><path id="Shape" d="m49 54h-5c-.5522847 0-1-.4477153-1-1s.4477153-1 1-1h5c.5522847 0 1 .4477153 1 1s-.4477153 1-1 1z" fill="#2b5781"/><path id="Shape" d="m37 58h-35c-1.10320187-.0032948-1.9967052-.8967981-2-2v-12.78c-.00318959-.4130939.12652702-.8162671.37-1.15.31190579-.4461359.79218683-.7458602 1.33-.83l8.3-1.24c-3 10 6 11 6 11l3-5 3 5s9-1 6-11l7 1.05v14.95c.0032948 1.1032019.8967981 1.9967052 2 2z" fill="#e04c34"/><path id="Shape" d="m35 23v18.05l-7-1.05v-6.25c1.8057532-2.4973182 2.819573-5.479551 2.91-8.56.0108839-.8948647.0911243-1.7875391.24-2.67 1.261437.3029666 2.5527895.4639664 3.85.48z" fill="#7e532f"/><path id="Shape" d="m22 51-3-5c3.7668157-.4995875 7.090067-2.7150883 9-6 3 10-6 11-6 11z" fill="#ebeff0"/><path id="Shape" d="m19 46-3 5s-9-1-6-11c1.909933 3.2849117 5.2331843 5.5004125 9 6z" fill="#ebeff0"/><path id="Shape" d="m28 33.75v6.25c-1.909933 3.2849117-5.2331843 5.5004125-9 6-3.7668157-.4995875-7.090067-2.7150883-9-6v-6.25c1.8422012 2.6809632 4.4587563 4.7358311 7.5 5.89.2.07.38.13.57.2.6022115.2100366 1.2577885.2100366 1.86 0 .19-.07.38-.13.57-.2 3.0412437-1.1541689 5.6577988-3.2090368 7.5-5.89z" fill="#f6c58f"/><path id="Shape" d="m31.15 22.52c-.1488757.8824609-.2291161 1.7751353-.24 2.67-.090427 3.080449-1.1042468 6.0626818-2.91 8.56-1.8422012 2.6809632-4.4587563 4.7358311-7.5 5.89-.19.07-.38.13-.57.2-.6022115.2100366-1.2577885.2100366-1.86 0-.19-.07-.37-.13-.57-.2-3.0412437-1.1541689-5.6577988-3.2090368-7.5-5.89-1.80280183-2.4981622-2.81317061-5.480492-2.9-8.56-.01088392-.8948647-.09112432-1.7875391-.24-2.67 7.85-1.86 12.14-8.52 12.14-8.52s4.29 6.66 12.15 8.52z" fill="#fad5a9"/><path id="Shape" d="m35 16v7c-1.2972105-.0160336-2.588563-.1770334-3.85-.48-7.86-1.86-12.15-8.52-12.15-8.52s-4.29 6.66-12.14 8.52c-1.26483216.302941-2.5594941.4639353-3.86.48v-7c0-8.836556 7.163444-16 16-16s16 7.163444 16 16z" fill="#a1693e"/><path id="Shape" d="m10 33.75v6.25l-8.3 1.24c-.53781317.0841398-1.01809421.3838641-1.33.83-.24643835-.6622372-.37176654-1.3633977-.37-2.07-.00090011-2.1422262 1.14323008-4.1215715 3-5.19v-11.81c1.3005059-.0160647 2.59516784-.177059 3.86-.48.14887568.8824609.22911608 1.7751353.24 2.67.08682939 3.079508 1.09719817 6.0618378 2.9 8.56z" fill="#7e532f"/></g></g></svg>